<mxfile host="app.diagrams.net" modified="2024-06-24T10:26:11.810Z" agent="Mozilla/5.0 (Windows NT 10.0; Win64; x64) AppleWebKit/537.36 (KHTML, like Gecko) Chrome/126.0.0.0 Safari/537.36" version="24.6.2" etag="du9yd9Q7Pdp-lyOsyhch" type="github">
  <diagram name="Strona-1" id="5_Iv5iT5U9ENUYq8egik">
    <mxGraphModel>
      <root>
        <mxCell id="0" />
        <mxCell id="1" parent="0" />
      </root>
    </mxGraphModel>
  </diagram>
</mxfile>
